<svg width="600" height="371" aria-label="A chart." style="overflow: hidden;">
  <defs id="defs">
    <clipPath id="_ABSTRACT_RENDERER_ID_0">
      <rect x="115" y="71" width="371" height="229"/>
    </clipPath>
  </defs>
  <rect x="0" y="0" width="600" height="371" stroke="none" stroke-width="0" fill="#ffffff"/>
  <g>
    <text text-anchor="start" x="115" y="30.6" font-family="Arial" font-size="16" font-weight="bold" stroke="none" stroke-width="0" fill="#000000">Bethel, Eugene and Springfield districts'</text>
    <text text-anchor="start" x="115" y="51.6" font-family="Arial" font-size="16" font-weight="bold" stroke="none" stroke-width="0" fill="#000000">Smarter Balanced test results, 2015-16</text>
    <rect x="115" y="17" width="371" height="37" stroke="none" stroke-width="0" fill-opacity="0" fill="#ffffff"/>
  </g>
  <g>
    <rect x="498" y="71" width="90" height="69" stroke="none" stroke-width="0" fill-opacity="0" fill="#ffffff"/>
    <g>
      <rect x="498" y="71" width="90" height="12" stroke="none" stroke-width="0" fill-opacity="0" fill="#ffffff"/>
      <g>
        <text text-anchor="start" x="527" y="81.2" font-family="Arial" font-size="12" stroke="none" stroke-width="0" fill="#222222">State</text>
      </g>
      <rect x="498" y="71" width="24" height="12" stroke="none" stroke-width="0" fill="#b6d7a8"/>
    </g>
    <g>
      <rect x="498" y="90" width="90" height="12" stroke="none" stroke-width="0" fill-opacity="0" fill="#ffffff"/>
      <g>
        <text text-anchor="start" x="527" y="100.2" font-family="Arial" font-size="12" stroke="none" stroke-width="0" fill="#222222">Bethel</text>
      </g>
      <rect x="498" y="90" width="24" height="12" stroke="none" stroke-width="0" fill="#b7b7b7"/>
    </g>
    <g>
      <rect x="498" y="109" width="90" height="12" stroke="none" stroke-width="0" fill-opacity="0" fill="#ffffff"/>
      <g>
        <text text-anchor="start" x="527" y="119.2" font-family="Arial" font-size="12" stroke="none" stroke-width="0" fill="#222222">Eugene</text>
      </g>
      <rect x="498" y="109" width="24" height="12" stroke="none" stroke-width="0" fill="#dd7e6b"/>
    </g>
    <g>
      <rect x="498" y="128" width="90" height="12" stroke="none" stroke-width="0" fill-opacity="0" fill="#ffffff"/>
      <g>
        <text text-anchor="start" x="527" y="138.2" font-family="Arial" font-size="12" stroke="none" stroke-width="0" fill="#222222">Springfield</text>
      </g>
      <rect x="498" y="128" width="24" height="12" stroke="none" stroke-width="0" fill="#a4c2f4"/>
    </g>
  </g>
  <g>
    <rect x="115" y="71" width="371" height="229" stroke="none" stroke-width="0" fill-opacity="0" fill="#ffffff"/>
    <g>
      <g>
        <rect x="115" y="299" width="371" height="1" stroke="none" stroke-width="0" fill="#cccccc"/>
        <rect x="115" y="242" width="371" height="1" stroke="none" stroke-width="0" fill="#cccccc"/>
        <rect x="115" y="185" width="371" height="1" stroke="none" stroke-width="0" fill="#cccccc"/>
        <rect x="115" y="128" width="371" height="1" stroke="none" stroke-width="0" fill="#cccccc"/>
        <rect x="115" y="71" width="371" height="1" stroke="none" stroke-width="0" fill="#cccccc"/>
      </g>
      <g>
        <rect x="139" y="120" width="18" height="179" stroke="none" stroke-width="0" fill="#b6d7a8"/>
        <rect x="262" y="180" width="19" height="119" stroke="none" stroke-width="0" fill="#b6d7a8"/>
        <rect x="386" y="143" width="18" height="156" stroke="none" stroke-width="0" fill="#b6d7a8"/>
        <rect x="158" y="121" width="19" height="178" stroke="none" stroke-width="0" fill="#b7b7b7"/>
        <rect x="282" y="194" width="18" height="105" stroke="none" stroke-width="0" fill="#b7b7b7"/>
        <rect x="405" y="153" width="18" height="146" stroke="none" stroke-width="0" fill="#b7b7b7"/>
        <rect x="178" y="102" width="18" height="197" stroke="none" stroke-width="0" fill="#dd7e6b"/>
        <rect x="301" y="159" width="18" height="140" stroke="none" stroke-width="0" fill="#dd7e6b"/>
        <rect x="424" y="126" width="19" height="173" stroke="none" stroke-width="0" fill="#dd7e6b"/>
        <rect x="197" y="145" width="18" height="154" stroke="none" stroke-width="0" fill="#a4c2f4"/>
        <rect x="320" y="202" width="19" height="97" stroke="none" stroke-width="0" fill="#a4c2f4"/>
        <rect x="444" y="161" width="18" height="138" stroke="none" stroke-width="0" fill="#a4c2f4"/>
      </g>
      <g>
        <rect x="115" y="299" width="371" height="1" stroke="none" stroke-width="0" fill="#333333"/>
      </g>
    </g>
    <g/>
    <g>
      <g>
        <text text-anchor="middle" x="177.16666666666666" y="317.2" font-family="Arial" font-size="12" stroke="none" stroke-width="0" fill="#222222">Science</text>
      </g>
      <g>
        <text text-anchor="middle" x="300.5" y="317.2" font-family="Arial" font-size="12" stroke="none" stroke-width="0" fill="#222222">Math</text>
      </g>
      <g>
        <text text-anchor="middle" x="423.8333333333333" y="317.2" font-family="Arial" font-size="12" stroke="none" stroke-width="0" fill="#222222">English</text>
      </g>
      <g>
        <text text-anchor="end" x="103" y="303.7" font-family="Arial" font-size="12" stroke="none" stroke-width="0" fill="#444444">0</text>
      </g>
      <g>
        <text text-anchor="end" x="103" y="246.7" font-family="Arial" font-size="12" stroke="none" stroke-width="0" fill="#444444">20</text>
      </g>
      <g>
        <text text-anchor="end" x="103" y="189.7" font-family="Arial" font-size="12" stroke="none" stroke-width="0" fill="#444444">40</text>
      </g>
      <g>
        <text text-anchor="end" x="103" y="132.7" font-family="Arial" font-size="12" stroke="none" stroke-width="0" fill="#444444">60</text>
      </g>
      <g>
        <text text-anchor="end" x="103" y="75.7" font-family="Arial" font-size="12" stroke="none" stroke-width="0" fill="#444444">80</text>
      </g>
    </g>
  </g>
  <g>
    <g>
      <text text-anchor="middle" x="300.5" y="349.2" font-family="Arial" font-size="12" font-style="italic" stroke="none" stroke-width="0" fill="#222222">Source: Oregon Department of Education</text>
      <rect x="115" y="339" width="371" height="12" stroke="none" stroke-width="0" fill-opacity="0" fill="#ffffff"/>
    </g>
    <g>
      <text text-anchor="middle" x="41.2" y="185.5" font-family="Arial" font-size="12" font-style="italic" transform="rotate(-90 41.2 185.5)" stroke="none" stroke-width="0" fill="#222222">Percentage of students who met or</text>
      <text text-anchor="middle" x="57.2" y="185.5" font-family="Arial" font-size="12" font-style="italic" transform="rotate(-90 57.2 185.5)" stroke="none" stroke-width="0" fill="#222222">exceeded state benchmarks</text>
      <path d="M30.999999999999996,300L31.00000000000001,71L59.00000000000001,71L58.99999999999999,300Z" stroke="none" stroke-width="0" fill-opacity="0" fill="#ffffff"/>
    </g>
  </g>
  <g/>
</svg>
